# xmcd CD database file
#
# Track frame offsets:
#	150
#	19425
#	38025
#	53100
#	72150
#	92100
#	112950
#	132675
#	153450
#	172875
#	193500
#	209775
#	228975
#	245250
#	263550
#
# Disc length: 3590 seconds
#
# Revision: 2
# Processed by: cddbd v1.5.1PL0 Copyright (c) Steve Scherf et al.
# Submitted via: CDex 1.51
#
DISCID=d00e040f
DTITLE=Barbara Robinson (C.J. Critt) - The Best Christmas Pageant Ever Disk 2
DYEAR=1972
DGENRE=Audio Book
TTITLE0=Chapter 04 Part 1
TTITLE1=Chapter 04 Part 2
TTITLE2=Chapter 04 Part 3
TTITLE3=Chapter 04 Part 4
TTITLE4=Chapter 05 Part 1
TTITLE5=Chapter 05 Part 2
TTITLE6=Chapter 05 Part 3
TTITLE7=Chapter 06 Part 1
TTITLE8=Chapter 06 Part 2
TTITLE9=Chapter 06 Part 3
TTITLE10=Chapter 07 Part 1
TTITLE11=Chapter 07 Part 2
TTITLE12=Chapter 07 Part 3
TTITLE13=Chapter 07 Part 4
TTITLE14=Chapter 07 Part 5
EXTD=audiobook YEAR: 1972
EXTT0=
EXTT1=
EXTT2=
EXTT3=
EXTT4=
EXTT5=
EXTT6=
EXTT7=
EXTT8=
EXTT9=
EXTT10=
EXTT11=
EXTT12=
EXTT13=
EXTT14=
PLAYORDER=
